<?xml version="1.0" encoding="UTF-8"?>
<svg id="Layer_1" data-name="Layer 1" xmlns="http://www.w3.org/2000/svg" xmlns:xlink="http://www.w3.org/1999/xlink" viewBox="0 0 714.66 276.97">
  <defs>
    <style>
      .cls-1 {
        fill: #5c5a58;
      }

      .cls-2 {
        fill: url(#Gradiente_sem_nome_19);
      }
    </style>
    <linearGradient id="Gradiente_sem_nome_19" data-name="Gradiente sem nome 19" x1="158.11" y1="246.01" x2="1.57" y2="89.46" gradientUnits="userSpaceOnUse">
      <stop offset="0" stop-color="#f7931e"/>
      <stop offset=".68" stop-color="#fad298"/>
    </linearGradient>
  </defs>
  <g>
    <path class="cls-1" d="m343.54,174h-51v58h51c15.99,0,29-13.01,29-29s-13.01-29-29-29Zm0,49h-42v-40h42c11.03,0,20,8.97,20,20s-8.97,20-20,20Z"/>
    <circle class="cls-1" cx="391.04" cy="203" r="7.5"/>
    <rect class="cls-1" x="520.04" y="158.5" width="9" height="9.5"/>
    <rect class="cls-1" x="498.04" y="143.5" width="9" height="88.5"/>
    <path class="cls-1" d="m542.04,203.5c0,15.99,13.01,29,29,29h46.5v-9h-46.5c-11.03,0-20-8.97-20-20s8.97-20,20-20h46.5v-9h-46.5c-15.99,0-29,13.01-29,29Z"/>
    <path class="cls-1" d="m690.03,198.63l24.63-24.63h-12.73l-23.5,23.5h-37.39v-54h-9v88.5h9v-25.5h41c11.03,0,20,8.97,20,20v4.5h9v-4.5c0-13.22-8.9-24.39-21.01-27.87Z"/>
    <rect class="cls-1" x="520.04" y="176" width="9" height="56"/>
    <path class="cls-1" d="m409.04,203.5c0,15.99,13.01,29,29,29h46.5v-9h-46.5c-11.03,0-20-8.97-20-20s8.97-20,20-20h46.5v-9h-46.5c-15.99,0-29,13.01-29,29Z"/>
  </g>
  <path class="cls-2" d="m199.01,237.85c-28.73,46.72-108.61,51.41-189.11,15.09-.45-.2-.74-.65-.74-1.14v-85.27c0-1.18,1.47-1.69,2.21-.77,54.26,67.23,118.07,69.78,137.65,33.7,19.26-35.47-14.16-116.8-91.12-164.13C37.84,22.99,18.61,11.65.67,2.35-.62,1.68.1-.29,1.53.04c29.65,6.69,61.07,19.4,91.45,38.09,91.71,56.41,139.18,145.82,106.03,199.72Zm-80.62-101.29c-16.96-22.02-42.93-30.46-57.99-18.86-15.06,11.6-13.52,38.86,3.44,60.88,16.96,22.02,42.93,30.46,57.99,18.86,15.06-11.6,13.52-38.86-3.44-60.88Z"/>
</svg>